<svg xmlns="http://www.w3.org/2000/svg" version="1.1" xmlns:xlink="http://www.w3.org/1999/xlink" width="512" height="512" x="0" y="0" viewBox="0 0 512 512" style="enable-background:new 0 0 512 512" xml:space="preserve" class=""><g>
<polygon xmlns="http://www.w3.org/2000/svg" style="" points="32,0 72.8,460.8 256,512 439.136,460.832 480,0 " fill="#ff5722" data-original="#ff5722" class=""></polygon>
<polygon xmlns="http://www.w3.org/2000/svg" style="" points="391.52,150.688 256,150.688 176.8,150.688 181.92,208.576 256,208.576 386.4,208.576   371.008,382.144 256,414.24 255.904,414.272 140.96,382.144 132.928,291.36 189.248,291.36 193.44,338.464 255.936,355.456   256,355.424 256,355.424 318.56,338.432 325.088,265.12 256,265.12 256,265.12 130.624,265.12 115.456,94.208 256,94.208   396.512,94.208 " fill="#fafafa" data-original="#fafafa" class=""></polygon>
<g xmlns="http://www.w3.org/2000/svg">
</g>
<g xmlns="http://www.w3.org/2000/svg">
</g>
<g xmlns="http://www.w3.org/2000/svg">
</g>
<g xmlns="http://www.w3.org/2000/svg">
</g>
<g xmlns="http://www.w3.org/2000/svg">
</g>
<g xmlns="http://www.w3.org/2000/svg">
</g>
<g xmlns="http://www.w3.org/2000/svg">
</g>
<g xmlns="http://www.w3.org/2000/svg">
</g>
<g xmlns="http://www.w3.org/2000/svg">
</g>
<g xmlns="http://www.w3.org/2000/svg">
</g>
<g xmlns="http://www.w3.org/2000/svg">
</g>
<g xmlns="http://www.w3.org/2000/svg">
</g>
<g xmlns="http://www.w3.org/2000/svg">
</g>
<g xmlns="http://www.w3.org/2000/svg">
</g>
<g xmlns="http://www.w3.org/2000/svg">
</g>
</g></svg>